# Exported from Wings 3D 1.5.3
mtllib level1.mtl
o Cube1
#48 vertices, 46 faces
v -4.59200000 -4.59200000 -4.59200000
v -4.59200000 -4.59200000 4.59200000
v -4.59200000 4.59200000 -4.59200000
v -4.59200000 4.59200000 4.59200000
v 4.59200000 -4.59200000 -4.59200000
v 4.59200000 -4.59200000 4.59200000
v 4.59200000 4.59200000 -4.59200000
v 4.59200000 4.59200000 4.59200000
v 12.41193378 -7.24617600 -7.24617600
v 12.41193378 -7.24617600 7.24617600
v 12.41193378 7.24617600 7.24617600
v 12.41193378 7.24617600 -7.24617600
v 23.17485339 -7.24617600 -7.24617600
v 23.17485339 -7.24617600 7.24617600
v 23.17485339 7.24617600 7.24617600
v 23.17485339 7.24617600 -7.24617600
v 13.41245478 -4.96908404 13.83736831
v 13.41245478 4.96908404 13.83736831
v 22.17433238 4.96908404 13.83736831
v 22.17433238 -4.96908404 13.83736831
v 12.91219428 -6.10763002 9.13471621
v 12.91219428 6.10763002 9.13471621
v 22.67459288 6.10763002 9.13471621
v 22.67459288 -6.10763002 9.13471621
v 15.34006786 -3.04147097 13.83736831
v 15.34006786 3.04147097 13.83736831
v 20.24671931 3.04147097 13.83736831
v 20.24671931 -3.04147097 13.83736831
v 15.34006786 -3.04147097 39.00386394
v 15.34006786 3.04147097 39.00386394
v 20.24671931 3.04147097 39.00386394
v 20.24671931 -3.04147097 39.00386394
v 15.86507956 -2.51645926 39.00386394
v 15.86507956 2.51645926 39.00386394
v 19.72170760 2.51645926 39.00386394
v 19.72170760 -2.51645926 39.00386394
v 26.07729898 -2.51645926 36.78960343
v 26.07729898 2.51645926 36.78960343
v 26.07729898 2.51645926 32.59333727
v 26.07729898 -2.51645926 32.59333727
v 20.24671931 -2.77896512 37.89673369
v 20.24671931 2.77896512 37.89673369
v 20.24671931 2.54829648 31.45595733
v 20.24671931 -2.54829648 31.45595733
v 38.48358032 -2.51645926 36.78960343
v 38.48358032 2.51645926 36.78960343
v 38.48358032 2.51645926 32.59333727
v 38.48358032 -2.51645926 32.59333727
vt -2.7755576e-17 0.57280235
vt -2.7755576e-17 0.64172607
vt 0.0000000e+0 0.24855134
vt 0.0000000e+0 0.37712352
vt 0.0000000e+0 0.64527606
vt 0.0000000e+0 0.71333868
vt 0.0000000e+0 0.71688867
vt 0.0000000e+0 0.80401284
vt 0.0000000e+0 1.00000000
vt 2.2797522e-5 0.80401284
vt 5.5018759e-4 0.12454701
vt 8.6819601e-4 0.57280235
vt 7.8455171e-3 0.35076072
vt 1.5522449e-2 0.28640117
vt 7.8874302e-2 0.78863548
vt 7.8878640e-2 0.73188918
vt 7.9657089e-2 0.57323290
vt 7.9657089e-2 0.64129552
vt 0.11039990 0.83990656
vt 0.11039990 0.96410628
vt 0.12381150 0.24855134
vt 0.12436169 0.12454701
vt 0.13364323 0.28640117
vt 0.13945454 0.35076072
vt 0.14509726 0.37712352
vt 0.14596546 0.57280235
vt 0.16744606 0.64527606
vt 0.16744606 0.71333868
vt 0.23190604 0.28640117
vt 0.23268607 0.83990656
vt 0.23268607 0.96410628
vt 0.23268607 0.83480707
vt 0.23268607 0.96920577
vt 0.23277424 9.0722342e-2
vt 0.23841696 6.4359541e-2
vt 0.24422827 0.0000000e+0
vt 0.24664303 0.78863548
vt 0.24664737 0.73188918
vt 0.24664737 0.73188918
vt 0.24665170 0.78863548
vt 0.24707949 0.64172607
vt 0.24707949 0.71688867
vt 0.24710516 0.57323290
vt 0.24710516 0.64129552
vt 0.25350981 0.41094818
vt 0.25406000 0.53495251
vt 0.29655862 0.81940995
vt 0.29655862 0.98460289
vt 0.32284138 0.80401284
vt 0.32284138 0.80401284
vt 0.32284138 0.93841154
vt 0.32284138 1.00000000
vt 0.34890943 0.83008089
vt 0.34890943 0.91234349
vt 0.36234905 2.7755576e-17
vt 0.37002598 6.4359541e-2
vt 0.37700330 0.28640117
vt 0.37732131 0.41094818
vt 0.37787150 0.53495251
vt 0.37787150 3.5893719e-2
vt 0.37787150 9.0722342e-2
vt 0.37787150 0.16009344
vt 0.37787150 0.19598716
vt 0.37787150 0.27824976
vt 0.37787150 0.36051236
vt 0.37787150 0.36051236
vt 0.37787150 0.55649952
vt 0.41441609 0.73188918
vt 0.41442043 0.78863548
vt 0.41526448 0.83008089
vt 0.41526448 0.91234349
vt 0.44133253 0.80401284
vt 0.44133253 0.92821256
vt 0.44133253 0.80401284
vt 0.44133253 0.93841154
vt 0.49327194 0.80401284
vt 0.49329473 0.71688867
vt 0.50152168 3.5893719e-2
vt 0.50152168 0.16009344
vt 0.56553225 0.80401284
vt 0.56553225 0.92821256
vt 0.57368162 0.36051236
vt 0.57368162 0.55649952
vt 0.59948569 0.37590947
vt 0.59948569 0.54110240
vt 0.61017936 0.0000000e+0
vt 0.61017936 0.19598716
vt 0.61613629 0.20265660
vt 0.61613629 0.27158032
vt 0.66331200 0.39130658
vt 0.66331200 0.52570529
vt 0.70323806 0.19953716
vt 0.70323806 0.27469976
vt 0.71821032 0.19598716
vt 0.71821032 0.27824976
vt 0.71821032 0.36051236
vt 0.75508757 0.0000000e+0
vt 0.75508757 0.19598716
vt 0.75508757 0.34033882
vt 0.75508757 0.42260142
vt 0.75508757 0.49066404
vt 0.75508757 0.34033882
vt 0.76218755 0.34743881
vt 0.76218755 0.41550143
vt 0.81183572 0.42260142
vt 0.81183572 0.49066404
vt 0.81434262 0.34743881
vt 0.81434262 0.41550143
vt 0.82144261 0.0000000e+0
vt 0.82144261 0.34033882
vt 0.82144261 0.0000000e+0
vt 0.82144261 0.34033882
vt 0.82144261 0.42260142
vt 0.88779766 0.0000000e+0
vt 0.88779766 0.34033882
vn 0.57735027 0.57735027 0.57735027
vn 0.57735027 0.57735027 -0.57735027
vn 0.57735027 -0.57735027 0.57735027
vn 0.57735027 -0.57735027 -0.57735027
vn 0.22734641 0.68859045 0.68859045
vn 0.22734641 0.68859045 -0.68859045
vn 0.22734641 -0.68859045 0.68859045
vn 0.22734641 -0.68859045 -0.68859045
vn 0.22734641 0.68859045 0.68859045
vn 0.43958821 0.76566906 -0.46958823
vn 0.43958821 -0.76566906 -0.46958823
vn 0.22734641 -0.68859045 0.68859045
vn -0.57735027 0.57735027 0.57735027
vn -0.69923995 0.66003940 -0.27461150
vn -0.69923995 -0.66003940 -0.27461150
vn -0.57735027 -0.57735027 0.57735027
vn 0.36519595 0.35694414 -0.85978067
vn 0.36519595 -0.35694414 -0.85978067
vn -0.36519595 -0.35694414 -0.85978067
vn -0.36519595 0.35694414 -0.85978067
vn 0.67549052 0.62977362 -0.38353324
vn 0.67549052 -0.62977362 -0.38353324
vn -0.67549052 -0.62977362 -0.38353324
vn -0.67549052 0.62977362 -0.38353324
vn 0.40824829 0.40824829 -0.81649658
vn 0.40824829 -0.40824829 -0.81649658
vn -0.66666667 -0.33333333 -0.66666667
vn -0.66666667 0.33333333 -0.66666667
vn 0.40824829 0.40824829 -0.81649658
vn 0.40824829 -0.40824829 -0.81649658
vn -0.66666667 -0.33333333 -0.66666667
vn -0.66666667 0.33333333 -0.66666667
vn 0.0000000e+0 0.0000000e+0 -1.00000000
vn 0.0000000e+0 0.0000000e+0 -1.00000000
vn 0.0000000e+0 0.0000000e+0 -1.00000000
vn 0.0000000e+0 0.0000000e+0 -1.00000000
vn -7.5427757e-2 0.71194402 -0.69817359
vn -7.5427757e-2 -0.71194402 -0.69817359
vn -7.6357608e-2 -0.70438542 0.70569873
vn -7.6357608e-2 0.70438542 0.70569873
vn -0.84731636 0.38287075 -0.36805567
vn -0.84731636 -0.38287075 -0.36805567
vn -0.84272849 -0.37995377 0.38137099
vn -0.84272849 0.37995377 0.38137099
vn -0.57735027 0.57735027 -0.57735027
vn -0.57735027 -0.57735027 -0.57735027
vn -0.57735027 -0.57735027 0.57735027
vn -0.57735027 0.57735027 0.57735027
g Cube1_Cube1_auv
usemtl Cube1_auv
s 1
f 1/80/1 3/81/3 4/73/4 2/72/2
f 1/60/1 5/78/5 7/79/7 3/62/3
f 2/11/2 6/22/6 5/21/5 1/3/1
f 3/59/3 7/46/7 8/45/8 4/58/4
f 4/31/4 8/20/8 6/19/6 2/30/2
f 5/78/5 9/86/9 12/87/12 7/79/7
f 6/22/6 10/34/10 9/29/9 5/21/5
f 7/46/7 12/26/12 11/25/11 8/45/8
f 8/20/8 11/9/11 10/8/10 6/19/6
f 9/86/9 13/97/13 16/98/16 12/87/12
f 10/34/10 14/61/14 13/57/13 9/29/9
f 10/34/10 21/35/21 24/56/24 14/61/14
f 11/52/11 22/48/22 21/47/21 10/49/10
f 12/26/12 16/12/16 15/4/15 11/25/11
f 14/82/14 15/83/15 16/67/16 13/65/13
f 14/82/14 24/84/24 23/85/23 15/83/15
f 15/4/15 23/13/23 22/24/22 11/25/11
f 17/32/17 21/47/21 22/48/22 18/33/18
f 17/74/17 25/70/25 28/53/28 20/50/20
f 18/23/18 22/24/22 23/13/23 19/14/19
f 18/75/18 26/71/26 25/70/25 17/74/17
f 19/91/19 23/85/23 24/84/24 20/90/20
f 19/51/19 27/54/27 26/71/26 18/75/18
f 20/55/20 24/56/24 21/35/21 17/36/17
f 20/50/20 28/53/28 27/54/27 19/51/19
f 25/110/25 29/109/29 32/114/32 28/115/28
f 26/96/26 30/66/30 29/64/29 25/95/25
f 27/102/27 31/97/31 30/111/30 26/112/26
f 27/64/27 43/89/43 42/93/42 31/95/31
f 28/63/28 44/88/44 43/89/43 27/64/27
f 29/112/29 33/107/33 36/103/36 32/99/32
f 30/113/30 34/108/34 33/107/33 29/112/29
f 31/100/31 35/104/35 34/108/34 30/113/30
f 31/95/31 42/93/42 41/92/41 32/94/32
f 32/99/32 36/103/36 35/104/35 31/100/31
f 32/94/32 41/92/41 44/88/44 28/63/28
f 34/108/34 35/104/35 36/103/36 33/107/33
f 37/27/37 41/41/41 42/42/42 38/28/38
f 37/16/37 45/38/45 48/37/48 40/15/40
f 38/68/38 42/77/42 43/76/43 39/69/39
f 38/28/38 46/6/46 45/5/45 37/27/37
f 39/18/39 43/2/43 44/1/44 40/17/40
f 39/69/39 47/40/47 46/39/46 38/68/38
f 40/15/40 44/10/44 41/7/41 37/16/37
f 40/17/40 48/43/48 47/44/47 39/18/39
f 46/106/46 47/101/47 48/100/48 45/105/45
