# Exported from Wings 3D 1.5.3
mtllib gun_Mesh.mtl
o Cube4
#20 vertices, 36 faces
v -3.5000000e-2 -3.5000000e-2 -8.3797663e-2
v -3.5000000e-2 -3.5000000e-2 1.6318711e-2
v -3.5000000e-2 3.5000000e-2 -8.3797663e-2
v -3.5000000e-2 3.5000000e-2 1.6318711e-2
v 3.5000000e-2 -3.5000000e-2 -8.3797663e-2
v 3.5000000e-2 -3.5000000e-2 1.6318711e-2
v 3.5000000e-2 3.5000000e-2 -8.3797663e-2
v 3.5000000e-2 3.5000000e-2 1.6318711e-2
v -1.6100000e-2 1.6100000e-2 3.8414650e-2
v -1.6100000e-2 -1.6100000e-2 3.8414650e-2
v 1.6100000e-2 -1.6100000e-2 3.8414650e-2
v 1.6100000e-2 1.6100000e-2 3.8414650e-2
v -1.6100000e-2 1.6100000e-2 0.15620234
v -1.6100000e-2 -1.6100000e-2 0.15620234
v 1.6100000e-2 -1.6100000e-2 0.15620234
v 1.6100000e-2 1.6100000e-2 0.15620234
v -1.1076800e-2 1.1076800e-2 0.14926508
v -1.1076800e-2 -1.1076800e-2 0.14926508
v 1.1076800e-2 -1.1076800e-2 0.14926508
v 1.1076800e-2 1.1076800e-2 0.14926508
vt 0.0000000e+0 4.9639854e-2
vt 0.0000000e+0 0.13421146
vt 0.0000000e+0 0.18385131
vt 0.0000000e+0 0.36770262
vt 0.0000000e+0 0.55155393
vt 2.7755576e-17 0.55155393
vt 1.3193170e-2 0.57404928
vt 7.1378433e-2 0.57404928
vt 8.4571603e-2 0.55155393
vt 9.7764773e-2 0.57404928
vt 0.15595004 0.57404928
vt 0.16914321 0.55155393
vt 0.16914321 0.60973919
vt 0.18385131 0.36770262
vt 0.18385131 0.55155393
vt 0.18385131 0.36770262
vt 0.18385131 0.45227422
vt 0.18385131 0.46546739
vt 0.18385131 0.52365266
vt 0.20634666 0.38089579
vt 0.20634666 0.43908105
vt 0.20634666 0.45227422
vt 0.20634666 0.53684583
vt 0.22732847 0.55155393
vt 0.22732847 0.60973919
vt 0.26209295 0.18385131
vt 0.26209295 0.36770262
vt 0.30835438 4.9639854e-2
vt 0.30835438 0.13421146
vt 0.32394300 0.23349116
vt 0.32394300 0.31806277
vt 0.37020443 0.0000000e+0
vt 0.37020443 0.18385131
vt 0.63229738 0.0000000e+0
vt 0.63229738 0.18385131
vt 0.63229738 0.23349116
vt 0.63229738 0.31806277
vt 0.63229738 0.37020443
vt 0.63229738 0.63229738
vt 0.68193723 0.30835438
vt 0.68193723 0.0000000e+0
vt 0.76650884 0.0000000e+0
vt 0.76650884 0.30835438
vt 0.81614869 0.37020443
vt 0.81614869 0.63229738
vt 0.81614869 0.37020443
vt 0.81614869 0.63229738
vt 0.86578854 0.0000000e+0
vt 0.86578854 0.30835438
vt 0.95036015 0.0000000e+0
vt 0.95036015 0.30835438
vt 1.00000000 0.37020443
vt 1.00000000 0.63229738
vn -0.57735027 -0.57735027 -0.57735027
vn -0.62675943 -0.62675943 0.46297433
vn -0.57735027 0.57735027 -0.57735027
vn -0.62675943 0.62675943 0.46297433
vn 0.57735027 -0.57735027 -0.57735027
vn 0.62675943 -0.62675943 0.46297433
vn 0.57735027 0.57735027 -0.57735027
vn 0.62675943 0.62675943 0.46297433
vn -0.62675943 0.62675943 0.46297433
vn -0.62675943 -0.62675943 0.46297433
vn 0.62675943 -0.62675943 0.46297433
vn 0.62675943 0.62675943 0.46297433
vn -0.15792347 0.15792347 0.97474117
vn -0.15792347 -0.15792347 0.97474117
vn 0.15792347 -0.15792347 0.97474117
vn 0.15792347 0.15792347 0.97474117
vn 0.32973576 -0.32973576 0.88461781
vn 0.32973576 0.32973576 0.88461781
vn -0.32973576 0.32973576 0.88461781
vn -0.32973576 -0.32973576 0.88461781
g Cube4_Cube4_auv
usemtl Cube4_auv
s 1
f 1/47/1 5/39/5 2/46/2
f 2/26/2 3/4/3 1/3/1
f 2/46/2 5/39/5 6/38/6
f 2/26/2 9/31/9 4/27/4
f 3/15/3 5/4/5 1/14/1
f 3/45/3 8/52/8 7/53/7
f 4/27/4 3/4/3 2/26/2
f 4/44/4 8/52/8 3/45/3
f 4/44/4 9/49/9 8/52/8
f 5/34/5 8/33/8 6/32/6
f 6/38/6 11/40/11 2/46/2
f 7/6/7 5/4/5 3/15/3
f 7/35/7 8/33/8 5/34/5
f 8/33/8 11/28/11 6/32/6
f 9/31/9 2/26/2 10/30/10
f 9/49/9 16/50/16 12/51/12
f 10/43/10 2/46/2 11/40/11
f 10/30/10 14/36/14 9/31/9
f 11/28/11 8/33/8 12/29/12
f 11/40/11 14/42/14 10/43/10
f 12/51/12 8/52/8 9/49/9
f 12/29/12 16/2/16 11/28/11
f 13/37/13 9/31/9 14/36/14
f 13/48/13 16/50/16 9/49/9
f 13/12/13 17/11/17 16/9/16
f 14/42/14 11/40/11 15/41/15
f 14/16/14 17/21/17 13/17/13
f 15/1/15 11/28/11 16/2/16
f 15/9/15 19/8/19 14/5/14
f 16/23/16 19/18/19 15/22/15
f 17/21/17 14/16/14 18/20/18
f 18/7/18 14/5/14 19/8/19
f 18/12/18 19/24/19 17/13/17
f 19/18/19 16/23/16 20/19/20
f 20/10/20 16/9/16 17/11/17
f 20/25/20 17/13/17 19/24/19
