# Exported from Wings 3D 1.5.3
mtllib manifold1_Mesh.mtl
o Cube1
#48 vertices, 42 faces
v -4.00000000 -4.00000000 -4.00000000
v -4.00000000 -4.00000000 4.00000000
v -4.00000000 4.00000000 -4.00000000
v -4.00000000 4.00000000 4.00000000
v 4.00000000 -4.00000000 -4.00000000
v 4.00000000 -4.00000000 4.00000000
v 4.00000000 4.00000000 -4.00000000
v 4.00000000 4.00000000 4.00000000
v -4.00000000 4.00000000 12.00000000
v -4.00000000 -4.00000000 12.00000000
v 4.00000000 -4.00000000 12.00000000
v 4.00000000 4.00000000 12.00000000
v -12.00000000 -4.00000000 -4.00000000
v -12.00000000 -4.00000000 4.00000000
v -12.00000000 4.00000000 4.00000000
v -12.00000000 4.00000000 -4.00000000
v 12.00000000 -4.00000000 4.00000000
v 12.00000000 -4.00000000 -4.00000000
v 12.00000000 4.00000000 -4.00000000
v 12.00000000 4.00000000 4.00000000
v -20.00000000 -4.00000000 -4.00000000
v -20.00000000 -4.00000000 4.00000000
v -20.00000000 4.00000000 4.00000000
v -20.00000000 4.00000000 -4.00000000
v 20.00000000 -4.00000000 4.00000000
v 20.00000000 -4.00000000 -4.00000000
v 20.00000000 4.00000000 -4.00000000
v 20.00000000 4.00000000 4.00000000
v -4.00000000 -4.00000000 -12.00000000
v -4.00000000 4.00000000 -12.00000000
v 4.00000000 4.00000000 -12.00000000
v 4.00000000 -4.00000000 -12.00000000
v -3.00000000 3.00000000 12.00000000
v -3.00000000 -3.00000000 12.00000000
v 3.00000000 -3.00000000 12.00000000
v 3.00000000 3.00000000 12.00000000
v -3.00000000 -3.00000000 -12.00000000
v -3.00000000 3.00000000 -12.00000000
v 3.00000000 3.00000000 -12.00000000
v 3.00000000 -3.00000000 -12.00000000
v 20.00000000 -3.00000000 3.00000000
v 20.00000000 -3.00000000 -3.00000000
v 20.00000000 3.00000000 -3.00000000
v 20.00000000 3.00000000 3.00000000
v -20.00000000 -3.00000000 -3.00000000
v -20.00000000 -3.00000000 3.00000000
v -20.00000000 3.00000000 3.00000000
v -20.00000000 3.00000000 -3.00000000
vt 0.0000000e+0 0.14285714
vt 0.0000000e+0 0.28571429
vt 0.0000000e+0 0.57142857
vt 0.0000000e+0 0.71428571
vt 0.0000000e+0 0.85714286
vt 0.0000000e+0 1.00000000
vt 0.14285714 0.14285714
vt 0.14285714 0.28571429
vt 0.14285714 0.57142857
vt 0.14285714 0.71428571
vt 0.14285714 0.85714286
vt 0.14285714 1.00000000
vt 0.28571429 0.28571429
vt 0.28571429 0.42857143
vt 0.28571429 0.0000000e+0
vt 0.28571429 0.14285714
vt 0.28571429 0.42857143
vt 0.28571429 0.57142857
vt 0.28571429 0.71428571
vt 0.28571429 0.85714286
vt 0.28571429 1.00000000
vt 0.42857143 0.28571429
vt 0.42857143 0.42857143
vt 0.42857143 0.42857143
vt 0.42857143 0.57142857
vt 0.42857143 0.71428571
vt 0.42857143 0.85714286
vt 0.42857143 0.0000000e+0
vt 0.42857143 0.14285714
vt 0.42857143 0.85714286
vt 0.42857143 1.00000000
vt 0.57142857 0.14285714
vt 0.57142857 0.28571429
vt 0.57142857 0.57142857
vt 0.57142857 0.71428571
vt 0.57142857 0.85714286
vt 0.57142857 1.00000000
vt 0.57142857 1.00000000
vt 0.71428571 0.0000000e+0
vt 0.71428571 0.14285714
vt 0.71428571 0.14285714
vt 0.71428571 0.28571429
vt 0.71428571 0.28571429
vt 0.71428571 0.57142857
vt 0.71428571 0.71428571
vt 0.71428571 0.85714286
vt 0.71428571 1.00000000
vt 0.71428571 0.28571429
vt 0.71428571 0.42857143
vt 0.71428571 0.42857143
vt 0.71428571 0.57142857
vt 0.71428571 0.71428571
vt 0.71428571 0.71428571
vt 0.71428571 0.85714286
vt 0.71428571 1.00000000
vt 0.73214286 0.30357143
vt 0.73214286 0.41071429
vt 0.73214286 0.87500000
vt 0.73214286 0.98214286
vt 0.83928571 0.30357143
vt 0.83928571 0.41071429
vt 0.83928571 0.87500000
vt 0.83928571 0.98214286
vt 0.85714286 0.0000000e+0
vt 0.85714286 0.14285714
vt 0.85714286 0.28571429
vt 0.85714286 0.28571429
vt 0.85714286 0.42857143
vt 0.85714286 0.42857143
vt 0.85714286 0.57142857
vt 0.85714286 0.71428571
vt 0.85714286 0.71428571
vt 0.85714286 0.85714286
vt 0.85714286 1.00000000
vt 0.87500000 0.73214286
vt 0.87500000 0.83928571
vt 0.87500000 0.87500000
vt 0.87500000 0.98214286
vt 0.98214286 0.73214286
vt 0.98214286 0.83928571
vt 0.98214286 0.87500000
vt 0.98214286 0.98214286
vt 1.00000000 0.71428571
vt 1.00000000 0.85714286
vt 1.00000000 1.00000000
vt 1.00000000 0.0000000e+0
vt 1.00000000 0.14285714
vt 1.00000000 0.28571429
vn 0.30151134 0.90453403 0.30151134
vn 0.30151134 0.90453403 -0.30151134
vn 0.30151134 -0.90453403 0.30151134
vn 0.30151134 -0.90453403 -0.30151134
vn -0.30151134 0.90453403 0.30151134
vn -0.30151134 0.90453403 -0.30151134
vn -0.30151134 -0.90453403 0.30151134
vn -0.30151134 -0.90453403 -0.30151134
vn 0.40824829 -0.40824829 -0.81649658
vn 0.40824829 0.40824829 -0.81649658
vn -0.40824829 0.40824829 -0.81649658
vn -0.40824829 -0.40824829 -0.81649658
vn 0.0000000e+0 0.70710678 0.70710678
vn 0.0000000e+0 0.70710678 -0.70710678
vn 0.0000000e+0 -0.70710678 -0.70710678
vn 0.0000000e+0 -0.70710678 0.70710678
vn 0.0000000e+0 0.70710678 -0.70710678
vn 0.0000000e+0 0.70710678 0.70710678
vn 0.0000000e+0 -0.70710678 0.70710678
vn 0.0000000e+0 -0.70710678 -0.70710678
vn 0.81649658 0.40824829 0.40824829
vn 0.81649658 0.40824829 -0.40824829
vn 0.81649658 -0.40824829 -0.40824829
vn 0.81649658 -0.40824829 0.40824829
vn -0.81649658 0.40824829 -0.40824829
vn -0.81649658 0.40824829 0.40824829
vn -0.81649658 -0.40824829 0.40824829
vn -0.81649658 -0.40824829 -0.40824829
vn 0.40824829 0.40824829 0.81649658
vn 0.40824829 -0.40824829 0.81649658
vn -0.40824829 -0.40824829 0.81649658
vn -0.40824829 0.40824829 0.81649658
vn 0.0000000e+0 0.0000000e+0 -1.00000000
vn 0.0000000e+0 0.0000000e+0 -1.00000000
vn 0.0000000e+0 0.0000000e+0 -1.00000000
vn 0.0000000e+0 0.0000000e+0 -1.00000000
vn 0.0000000e+0 0.0000000e+0 1.00000000
vn 0.0000000e+0 0.0000000e+0 1.00000000
vn 0.0000000e+0 0.0000000e+0 1.00000000
vn 0.0000000e+0 0.0000000e+0 1.00000000
vn -1.00000000 0.0000000e+0 0.0000000e+0
vn -1.00000000 0.0000000e+0 0.0000000e+0
vn -1.00000000 0.0000000e+0 0.0000000e+0
vn -1.00000000 0.0000000e+0 0.0000000e+0
vn 1.00000000 0.0000000e+0 0.0000000e+0
vn 1.00000000 0.0000000e+0 0.0000000e+0
vn 1.00000000 0.0000000e+0 0.0000000e+0
vn 1.00000000 0.0000000e+0 0.0000000e+0
g Cube1_Cube1_auv
usemtl Cube1_auv
s 1
f 1/19/1 13/10/13 14/9/14 2/18/2
f 1/53/1 29/72/29 30/73/30 3/54/3
f 2/18/2 6/25/6 5/26/5 1/19/1
f 2/18/2 10/17/10 11/23/11 6/25/6
f 2/20/2 14/30/14 15/31/15 4/21/4
f 3/22/3 7/13/7 8/16/8 4/29/4
f 3/87/3 16/65/16 13/64/13 1/86/1
f 3/22/3 30/24/30 31/14/31 7/13/7
f 4/47/4 9/37/9 10/36/10 2/46/2
f 4/29/4 15/32/15 16/33/16 3/22/3
f 5/40/5 18/65/18 19/67/19 7/42/7
f 5/26/5 32/27/32 29/20/29 1/19/1
f 6/51/6 11/70/11 12/71/12 8/52/8
f 6/25/6 17/34/17 18/35/18 5/26/5
f 7/13/7 19/8/19 20/7/20 8/16/8
f 7/70/7 31/51/31 32/50/32 5/69/5
f 8/16/8 12/15/12 9/28/9 4/29/4
f 8/21/8 20/12/20 17/11/17 6/20/6
f 9/68/9 33/61/33 34/60/34 10/66/10
f 10/66/10 34/60/34 35/56/35 11/48/11
f 11/48/11 35/56/35 36/57/36 12/49/12
f 12/49/12 36/57/36 33/61/33 9/68/9
f 13/10/13 21/4/21 22/3/22 14/9/14
f 14/30/14 22/36/22 23/38/23 15/31/15
f 15/32/15 23/41/23 24/43/24 16/33/16
f 16/65/16 24/40/24 21/39/21 13/64/13
f 17/34/17 25/44/25 26/45/26 18/35/18
f 18/65/18 26/87/26 27/88/27 19/67/19
f 19/8/19 27/2/27 28/1/28 20/7/20
f 20/12/20 28/6/28 25/5/25 17/11/17
f 21/83/21 45/79/45 46/75/46 22/72/22
f 22/72/22 46/75/46 47/76/47 23/73/23
f 23/73/23 47/76/47 48/80/48 24/84/24
f 24/84/24 48/80/48 45/79/45 21/83/21
f 25/84/25 41/81/41 42/77/42 26/73/26
f 26/73/26 42/77/42 43/78/43 27/74/27
f 27/74/27 43/78/43 44/82/44 28/85/28
f 28/85/28 44/82/44 41/81/41 25/84/25
f 29/54/29 37/58/37 38/59/38 30/55/30
f 30/55/30 38/59/38 39/63/39 31/74/31
f 31/74/31 39/63/39 40/62/40 32/73/32
f 32/73/32 40/62/40 37/58/37 29/54/29
